<svg version="1.2" xmlns="http://www.w3.org/2000/svg" viewBox="0 0 512 512" width="512" height="512"><style>.a{fill:#b3e744}.b{fill:#242a15}</style><path class="a" d="m512 0v512h-512v-512z"/><path fill-rule="evenodd" class="b" d="m0 0h512v512h-512zm250 381v-119h-238v69.9l141.5 0.6 5.7 2.8c7.4 3.6 13.9 10.1 17.5 17.5l2.8 5.7 0.6 141.5h69.9zm193 116.2c28.3-8.6 49.3-31.4 55.1-59.8 1.9-9.2 2-12.9 1.7-59.8-0.4-47.5-0.5-50.5-2.5-57.7-7.4-26.4-27.7-46.9-54.5-55.1-7.3-2.2-7.5-2.2-94.1-2.6l-86.8-0.3 0.6 127.6 2.6 5.6c4.9 10.5 13.3 17.6 24.1 20.5 7.5 2 91.6 2 99.9 0 11.1-2.6 19.8-9.8 24.7-20.5 3.8-8 3.8-20.2 0-28.2-3.1-6.9-8.7-13.1-14.5-16.5-8-4.7-12.8-5.4-40.5-5.4h-25.8v-12.1l29.3 0.3c27 0.3 29.6 0.5 34.9 2.4 19.1 7.3 31.8 25.4 31.8 45.4 0 20.8-13.4 39.2-33.3 45.5l-7.8 2.5h-48.4c-48 0-48.5 0-55.8-2.3-7.3-2.3-13.5-6-18.9-11l-2.8-2.6v87l86.8-0.3 86.7-0.4zm-365-46c0-17.9 0.2-20 1.8-21.5 1.8-1.6 2.3-0.7 12.3 19.9l10.4 21.4 16.3 0.1c15.2 0 16.2-0.1 15.4-1.8-0.5-0.9-6.9-12.9-14.1-26.5-7.3-13.6-13-25.1-12.8-25.5 0.2-0.4 6.1-10 13-21.4 7-11.4 12.7-20.9 12.7-21.3 0-0.3-6.9-0.5-15.2-0.5h-15.3l-12 19.5-12 19.4-0.3-19.4-0.2-19.5h-32v97h32zm172-296.2v-95.1l-86.7 0.4c-86.6 0.3-86.8 0.3-94.1 2.5-28.5 8.8-49.4 31.2-55.2 59.4-1.8 8.6-2 13.9-2 68.6v59.2h238zm250 76.6v-18.5h-101.5l-12.5-12.5-12.5-12.5h-40.5v-12h46.5l12.5 12.5 12.5 12.5h95.5v-34.8c0-30.4-0.3-35.9-2-44.1-5.8-28.2-26.8-50.8-55.2-59.3-7-2.1-9.5-2.2-59.3-2.8-57.8-0.6-55.5-0.3-59.1-7.3-3.6-6.9-12.6-17.6-19.5-23.1-11.5-9.2-24.1-14.7-37.5-16.6l-5.4-0.7v237.7h238zm-74.5-69.4c-11.3-3-21.6-11.5-26.8-22.1-2.9-6-3.2-7.3-3.1-16.5 0-8.1 0.4-11.1 2.3-15.8 3.2-8.1 11.5-16.9 20-21 6.2-3 7.3-3.2 17.1-3.2 9.8 0 10.9 0.2 17.1 3.2 11.6 5.6 19.8 16.4 22.4 29.3 0.6 3.1 0.4 2.9-2-1.8-7.4-14.5-28.3-14.4-35.1 0.1-3.1 6.6-3 11 0.2 17.5 7.2 14.4 27.6 14.4 34.8 0 3-6 3.3-5.4 1 2.2-3.4 11.3-11.7 21-22.2 25.7-6.1 2.7-19.7 4-25.7 2.4z"/></svg>