<svg version="1.2" xmlns="http://www.w3.org/2000/svg" viewBox="0 0 2220 512" width="2220" height="512"><style>.a{fill:#b3e744}.b{fill:#242a15}</style><path class="a" d="m2219.9 0v511h-2219.9v-511z"/><path fill-rule="evenodd" class="b" d="m0 0h2219.9v511h-2219.9zm250 380.3v-118.7h-238v69.8l141.5 0.5 5.5 2.7c7.1 3.5 14.3 10.7 17.8 17.8l2.7 5.5 0.6 141.2h69.9zm191.5 116.5c27.3-8 47.9-28.4 55.7-55.3 2.2-7.6 2.3-8.7 2.3-61.2 0-59.5 0-58.7-7.1-73.8-7.6-16-20.9-29.5-36.6-37-16.6-7.8-10-7.4-107.1-7.7l-86.8-0.3 0.3 63.7 0.3 63.6 3.2 6.6c3.9 7.8 10.2 14 18.1 17.7l5.7 2.7h100l5.7-2.7c7.9-3.7 14.2-9.9 18-17.7 2.9-5.9 3.3-7.5 3.3-15.1-0.1-7-0.5-9.4-2.7-14.1-3.7-7.9-9.8-14.2-17.7-18.1l-6.6-3.2-56.5-0.7v-11.8h26.8c29.6 0 33.9 0.6 44.4 6.2 6.9 3.7 16.5 13.5 19.6 20.1 9 19.1 6 39.1-8 54.1-6.4 6.8-14.4 11.6-23.4 13.9-8.5 2.2-97.2 2.3-105.7 0-7.8-2-15-5.8-20.3-10.6l-4.4-4.1v87.2l86.7-0.3c79.1-0.3 87.3-0.5 92.8-2.1zm-363.5-46.5c0-17.9 0.2-19.9 1.8-21.4 1.8-1.6 2.3-0.8 12.2 19.8l10.4 21.5h32.6l-2-4c-1.1-2.2-7.4-14.2-14.1-26.6l-12-22.5 13.1-21.3c7.1-11.7 13-21.5 13-21.9 0-0.3-6.9-0.6-15.3-0.6h-15.4l-23.8 38.9-0.3-19.4-0.2-19.5h-32v96.9h32zm522.7 16.7c2.4-1 5.8-3.5 7.7-5.5l3.3-3.7 0.8 5.1 0.7 5.2h21.8v-62.9h-43v16h13v9.5c0 11.2-1.5 15.5-6.2 18.4-7.4 4.4-16.4 1-18.5-7-1.4-5.4-1.7-63.4-0.4-69.2 1.5-6.4 4.4-8.6 11.2-8.6 5.1 0 6 0.3 8.2 2.9 2.1 2.5 2.6 4.5 3.2 12l0.7 9h31.8v-5.9c0-20.7-9-31.8-28.7-35.6-14.6-2.8-32.9-1.2-42.3 3.6-10.7 5.4-16.3 14.6-18.2 29.6-1.6 13.1-0.5 57.1 1.5 64.5 4.2 14.7 14.3 22.7 31.2 24.7 8.1 1 17.1 0.1 22.2-2.1zm666-0.6c2.8-1.3 6.2-3.9 7.5-5.6l2.2-3.2 1.1 5 1 5 21.4 0.5v-62.9h-43v16h14v6.7c-0.1 10.8-1.3 15.9-4.5 19.2-5.3 5.6-15.7 4.9-19.5-1.3-1.8-3-2-5.3-2-38.4 0-37.5 0.3-39.6 5-42.1 2.8-1.5 11.3-1.3 13.7 0.4 2.6 1.8 4.3 8.5 4.3 16.5v6h32v-7.7c0-13-4.4-22.5-13-28-7.9-5.2-14.6-6.7-31-6.7-12.6 0-15.3 0.3-21.3 2.3-12.3 4.3-19 11.5-22.2 23.9-1.3 5.2-1.5 11.5-1.3 38.4 0.4 31.2 0.5 32.4 2.8 38.2 3.1 7.9 10.6 15.3 18 17.9 11.5 4 26.1 4 34.8-0.1zm-583.8-9.6c1.2-6.1 2.4-12 2.7-13 0.5-1.6 1.7-1.7 11.7-1.5l11.2 0.3 2.4 12.7 2.4 12.8h15.4c8.4 0 15.3-0.2 15.3-0.4 0-0.3-25.6-110.1-27.5-118.2l-0.6-2.3-19.1 0.3-19.2 0.3-11.8 49.9c-6.5 27.4-12.9 54.5-14.2 60.1l-2.4 10.3h31.5zm6.4-33.5c0.3-1.5 2-11.6 3.8-22.4 1.8-10.9 3.6-19.7 3.9-19.7 0.3 0 2.1 8.8 3.9 19.7 1.8 10.8 3.5 20.9 3.8 22.4l0.5 2.8h-16.5zm94.1 33.9c0.3-5.9 0.9-23.9 1.2-40 0.4-16.2 1-28.8 1.4-28 0.4 0.8 4.7 18.8 9.6 40.1l8.9 38.7 21-0.6 8.6-39.4c9.8-44.9 9.4-44.5 10.4-9 0.3 10.7 0.8 26.1 1.2 34.2l0.6 14.7h23.8l-0.5-4.7c-0.3-2.6-0.8-20.5-1.1-39.7-0.3-19.2-0.8-44.2-1.1-55.6l-0.7-20.7h-34.2l-8.9 34.9c-4.9 19.2-9 34.8-9.2 34.7-0.3-0.4-16.4-67.9-16.4-69 0-0.3-8-0.6-17.9-0.6h-17.8l-0.7 16.7c-0.3 9.2-0.8 31.7-1.1 50.1-0.3 18.4-0.8 38.1-1.1 43.7l-0.6 10.2h24zm176.6-7.2h-35v-36.9h27v-18h-27v-29.9h35v-18h-68v120.8h68zm132 8.9v-8.9h-35v-37h26v-17.9h-26v-29.9l34.5-0.6 0.3-8.7 0.3-8.7h-68.1v120.7h68zm44-22.2l0.1-31.2 15.7 31.2 15.7 31.2h22.5v-120.8h-28l-0.3 28.6-0.2 28.6-15.1-28.4-15.1-28.3-12.2-0.2-12.1-0.3v120.8h29zm218.9-89.6h-33v120.8h33zm52.1 89.6l0.1-31.2 15.3 31.2 15.4 31.2h22.1v-120.8h-27v28.7c0 16.6-0.4 28.2-0.9 27.7-0.5-0.6-7.5-13.5-15.6-28.7l-14.7-27.7h-23.8v120.8h29zm144.9 13.2h-35v-36.9h26v-18h-26v-29.9h34v-18h-68v120.8h69zm348.6-141.8c21.7-3.1 36-9.3 47.4-20.8 9.6-9.6 15-20.6 18.1-36.7 1.6-8.3 2.4-105.6 1-120.8-2-22.3-7.3-35.7-18.5-46.8-15-14.9-33.4-21.1-66.2-22.1-33.5-1.1-55.8 4.1-72.9 17-10.5 7.9-17.3 19.1-21.7 35.9-2.1 7.8-2.2 10.6-2.5 65.1-0.5 68.5 0.2 76.1 8.3 92.9 9.6 20.1 28.5 32.1 57.3 36.3 8.3 1.2 40.8 1.2 49.7 0zm-31.1-36.8c-6.9-1.2-11-4.6-14.2-11.6-1.6-3.7-1.8-8.9-2.1-67.7-0.2-39.9 0.1-66.8 0.7-72.2 1.7-13.5 6.2-19.4 16.3-21.3 5.8-1.1 14-0.4 17.9 1.6 4.5 2.3 8.6 7.9 9.8 13.4 1.5 6.9 1.5 135.7 0.1 142.5-1.2 5.7-5.9 11.9-10.4 13.7-4.1 1.7-13.1 2.5-18.1 1.6zm-1257.4-62.2l3.7-5c2.8-3.9 3.9-4.7 4.6-3.7 0.4 0.8 10.4 24.8 22 53.3l21.2 51.9 33.9 0.3c31.9 0.3 33.8 0.2 33.3-1.5-0.3-1-13.4-30.8-29.1-66.4l-28.7-64.7 9.5-18.7c5.2-10.2 17.8-34.8 27.9-54.6l18.5-35.9-31.6-0.3c-17.5-0.1-32.2 0-32.8 0.2-0.6 0.2-12.3 22.2-26 48.9-13.7 26.7-25.3 48.5-25.7 48.5-0.4 0-0.7-22-0.7-48.9v-48.9h-66v242.5h66zm198.9 76.4c2.4-11.4 4.7-22.9 5.3-25.5l0.9-4.7 45.1 0.5 5 25.2 5 25.2h61.6l-1.5-6.2c-0.7-3.5-13.5-57.9-28.2-121.1l-26.8-114.8-38.1-0.2c-35.6-0.3-38.1-0.2-38.6 1.5-0.9 3.2-56.6 239.3-56.6 240 0 0.5 14.1 0.8 31.3 0.8h31.4zm12.8-62.7c-0.3-0.2 2.4-17.2 5.8-37.6 8.8-51.8 9.7-56.3 10.2-54.8 1 3 15.9 91.5 15.5 92.2-0.4 0.8-30.6 1.1-31.5 0.2zm188.2 78.2c0-2.9 0.9-35.6 2-72.6 1.1-37.1 2-71.2 2-75.8 0-4.6 0.2-8.2 0.5-7.9 0.4 0.4 37.5 159.8 37.5 161.2 0 0.2 9.5 0.2 21.2 0.1l21.1-0.3 17.3-79.2c9.5-43.6 17.6-79.5 17.9-79.8 0.3-0.3 0.5 1.2 0.5 3.4 0 2.1 1.1 34.9 2.5 72.8 1.4 37.8 2.5 72.1 2.5 76.1v7.2h47.8l-0.5-20.2c-0.3-11.1-1.5-65.6-2.7-121l-2.1-100.8-69.1-0.6-18 70.4c-11.1 43.8-18.2 69.7-18.6 68.7-0.7-1.7-32.8-137.2-32.8-138.5 0-0.3-16.2-0.5-36-0.5h-36v2.7c0 1.5-1.1 53.1-2.5 114.5-1.4 61.5-2.5 114.9-2.5 118.6v6.7h48zm354-30.7h-70v-72.9h53v-36.9h-53v-60.9h69v-35.9h-136v242.5h137zm97-72.8h9.9c8.6 0 10 0.2 10.5 1.7 1.3 4.7 30.8 101 31.7 103.8l1 3.3h34.4c19 0 34.5-0.2 34.5-0.3 0-0.2-9.3-26.3-20.5-58.1-11.3-31.7-20.5-58-20.5-58.3 0-0.3 3.5-2.4 7.7-4.5 9.4-4.8 18.8-13.8 22.6-21.6 4.1-8.5 5.9-18.7 6-33.9 0.1-21.2-3.8-32.2-15.2-43.2-8-7.7-13.7-11.1-24.4-14.7-19.9-6.6-36.5-8-96.5-8h-47.2v242.6h66zm0-97.8h15.4c19.9 0 26.4 1.7 32.5 8.6 5.4 6.1 7.5 13.1 7.5 24.8-0.1 15.7-4.5 24.6-14.9 29.9-5.8 3-6.2 3-23.2 3.4l-17.3 0.3zm295 188.7v-18h-70v-72.8h53v-37h-53.1l0.6-60.4 69.5-0.5v-35.9h-136v242.5h136zm307.9-44.6c0-34.4 0.4-62.1 0.9-61.6 0.4 0.5 14.5 28.7 31.2 62.6l30.4 61.6h45.5v-242.5h-55.9l-0.6 115.6-30.8-57.8-30.8-57.8h-46.9v242.5h57zm-1815.9-184l-86.7 0.3c-97.1 0.3-90.5-0.1-107.1 7.7-15.8 7.6-28.9 20.8-36.6 37.1-7.2 15.2-6.9 12.5-7.3 82l-0.4 62.6h238.1zm250 152.8h-101.3l-12.6-12.5-12.7-12.5h-40.4v-11.9h46.6l24.9 24.9h95.7l-0.4-38.2c-0.5-42.2-0.6-43.2-7.3-57.5-7.7-16.2-20.8-29.5-36.7-37-15.7-7.5-14.3-7.3-72.3-8-57.3-0.6-54.6-0.3-58.7-7-13.8-22.8-34.3-36.8-59-40.3l-3.8-0.5v237.4h238zm-77.6-52c-27.3-9.2-36.3-44.5-16.6-65.1 16.3-17 43.8-16.6 59.2 1 3.7 4.2 9.1 14.8 8.9 17.8 0 1.4-0.2 1.6-0.6 0.5-2.7-7.1-12.3-12.6-20.4-11.6-10.3 1.2-17.4 9.2-17.4 19.6 0 7.1 2.9 12.6 8.6 16.5 3.8 2.5 5.3 3 10.9 2.9 5.4 0 7.3-0.5 10.7-2.7 2.4-1.5 5.2-4.4 6.2-6.5 3.3-6 2.6-0.7-0.8 6.3-8.9 18.8-29.4 27.8-48.7 21.3z"/></svg>